<?xml version="1.0" standalone="no"?>
<!DOCTYPE svg PUBLIC "-//W3C//DTD SVG 20010904//EN"
 "http://www.w3.org/TR/2001/REC-SVG-20010904/DTD/svg10.dtd">
<svg version="1.0" xmlns="http://www.w3.org/2000/svg"
 width="275.000000pt" height="50.000000pt" viewBox="0 0 275.000000 50.000000"
 preserveAspectRatio="xMidYMid meet">

<g transform="translate(0.000000,50.000000) scale(0.100000,-0.100000)"
fill="#000000" stroke="none">
<path d="M368 361 c-16 -27 -28 -55 -28 -62 1 -9 4 -8 11 4 7 12 23 17 54 17
31 0 47 -5 54 -17 7 -12 10 -13 11 -4 0 19 -53 111 -65 111 -5 0 -22 -22 -37
-49z m72 -26 c0 -3 -16 -5 -35 -5 l-35 0 17 35 16 35 19 -30 c10 -17 18 -33
18 -35z"/>
<path d="M580 350 l0 -60 54 0 c65 0 78 13 74 72 l-3 43 -62 3 -63 3 0 -61z
m115 5 l0 -40 -47 -3 c-47 -3 -48 -3 -48 27 0 16 -3 37 -6 46 -6 14 1 16 47
13 l54 -3 0 -40z"/>
<path d="M850 350 c17 -34 35 -58 39 -55 15 9 63 95 59 107 -2 6 -15 -10 -28
-36 -14 -25 -28 -46 -33 -46 -4 0 -17 20 -29 45 -12 25 -26 45 -30 45 -5 0 5
-27 22 -60z"/>
<path d="M1066 395 c-10 -27 -7 -80 6 -93 17 -17 103 -15 117 2 7 8 11 34 9
58 l-3 43 -61 3 c-49 2 -63 0 -68 -13z m119 -40 l0 -40 -52 -3 c-45 -3 -52 0
-58 18 -4 12 -4 33 -1 46 6 23 10 25 59 22 l52 -3 0 -40z"/>
<path d="M1316 394 c-10 -26 -7 -79 6 -92 16 -16 100 -16 116 0 7 7 12 22 12
35 0 19 -5 23 -29 23 -38 0 -50 -18 -16 -22 47 -6 26 -23 -27 -23 -57 0 -66
10 -53 62 5 23 9 25 60 21 30 -1 55 0 55 5 0 4 -27 7 -59 7 -44 0 -60 -4 -65
-16z"/>
<path d="M1588 360 c-26 -46 -41 -98 -17 -57 12 20 88 24 107 5 20 -20 14 1
-15 53 -16 27 -32 49 -38 49 -5 0 -22 -23 -37 -50z m72 -22 c0 -5 -16 -8 -35
-8 l-36 0 17 32 16 31 19 -24 c10 -13 19 -27 19 -31z"/>
<path d="M1800 350 l0 -60 53 0 c62 0 87 19 87 66 0 43 -17 54 -82 54 l-58 0
0 -60z m115 5 l0 -40 -47 -3 c-47 -3 -48 -3 -48 27 0 16 -3 37 -6 46 -6 14 1
16 47 13 l54 -3 0 -40z"/>
<path d="M2057 404 c-12 -12 -8 -89 5 -102 17 -17 103 -15 117 2 7 8 11 34 9
58 l-3 43 -60 3 c-34 2 -64 0 -68 -4z m119 -28 c12 -51 3 -61 -56 -61 -59 0
-68 10 -56 61 6 21 12 24 56 24 44 0 50 -3 56 -24z"/>
<path d="M2304 395 c-11 -28 4 -45 38 -44 l33 1 -30 7 c-17 3 -30 13 -30 21 0
11 13 15 53 15 28 0 52 3 52 8 0 4 -25 7 -55 7 -40 0 -57 -4 -61 -15z"/>
<path d="M2407 330 c5 -18 0 -20 -39 -20 -24 0 -50 6 -57 13 -10 10 -12 8 -9
-8 3 -16 12 -21 55 -23 44 -3 53 0 63 18 11 20 6 40 -10 40 -4 0 -6 -9 -3 -20z"/>
<path d="M138 133 c7 -3 16 -2 19 1 4 3 -2 6 -13 5 -11 0 -14 -3 -6 -6z"/>
<path d="M196 131 c-7 -11 50 -19 184 -26 47 -2 132 -9 190 -14 249 -24 486
-36 595 -31 11 1 67 -3 125 -9 94 -10 404 -25 520 -25 25 0 70 0 100 0 341 -2
575 3 625 13 33 7 81 13 106 15 57 5 105 32 89 52 -8 8 -20 10 -38 4 -15 -4
-65 -13 -112 -19 -47 -6 -113 -15 -147 -19 -34 -5 -85 -6 -115 -4 -59 5 -63 5
-203 4 -55 -1 -118 -1 -140 0 -22 0 -98 0 -168 -1 -70 -1 -133 2 -139 5 -7 4
-64 8 -127 10 -73 1 -107 -1 -91 -7 29 -9 -54 -5 -105 6 -23 5 -26 4 -15 -4
12 -9 11 -11 -7 -11 -13 0 -23 4 -23 9 0 4 -12 9 -27 10 -16 0 -77 3 -138 6
-60 2 -125 7 -142 9 -18 3 -33 1 -33 -4 0 -11 -156 -3 -179 10 -27 14 -51 13
-31 -1 11 -7 -1 -8 -40 -4 -64 7 -176 13 -350 18 -69 2 -132 7 -141 11 -10 4
-20 3 -23 -3z"/>
</g>
</svg>
