<?xml version="1.0" standalone="no"?>
<!DOCTYPE svg PUBLIC "-//W3C//DTD SVG 20010904//EN"
 "http://www.w3.org/TR/2001/REC-SVG-20010904/DTD/svg10.dtd">
<svg version="1.0" xmlns="http://www.w3.org/2000/svg"
 width="797.000000pt" height="145.000000pt" viewBox="0 0 797.000000 145.000000"
 preserveAspectRatio="xMidYMid meet">

<g transform="translate(0.000000,145.000000) scale(0.100000,-0.100000)"
fill="#000000" stroke="none">
<path d="M3119 1181 c-44 -35 -62 -149 -38 -251 18 -78 23 -80 179 -80 75 0
151 5 167 10 48 17 55 43 51 173 -4 162 -3 161 -191 165 -131 4 -144 2 -168
-17z m305 -43 c12 -17 16 -48 16 -117 0 -132 1 -131 -159 -131 -69 0 -131 4
-137 8 -23 15 -34 53 -34 121 0 71 12 120 33 133 7 4 69 8 139 8 120 0 128 -1
142 -22z"/>
<path d="M3835 1176 c-30 -30 -38 -73 -34 -180 3 -67 8 -91 25 -113 l21 -28
156 -3 156 -3 18 27 c10 16 19 53 21 91 l4 64 -93 -3 c-86 -3 -94 -5 -94 -23
0 -18 8 -21 70 -25 70 -5 70 -5 70 -35 0 -43 -31 -55 -150 -55 -157 0 -186 29
-171 174 8 80 25 95 115 98 140 5 173 1 199 -27 18 -20 27 -24 36 -15 16 16
-13 62 -44 71 -14 4 -83 7 -153 8 -122 1 -129 0 -152 -23z"/>
<path d="M5990 1187 c-43 -21 -51 -52 -48 -174 4 -159 2 -157 197 -161 146 -3
149 -3 177 21 28 25 29 28 32 134 3 122 -12 172 -58 184 -46 13 -273 10 -300
-4z m300 -43 c11 -11 15 -40 15 -120 0 -136 3 -134 -162 -134 -159 0 -163 3
-163 125 0 93 13 133 44 140 79 18 244 11 266 -11z"/>
<path d="M6710 1188 c-52 -28 -66 -103 -25 -143 22 -23 32 -25 117 -25 103 -1
167 -12 179 -32 5 -7 9 -27 9 -44 0 -46 -34 -57 -160 -52 -97 3 -103 4 -124
31 -20 25 -46 36 -46 20 0 -4 7 -27 16 -50 l17 -43 139 0 140 0 29 29 c23 24
29 38 29 73 0 70 -4 72 -142 78 -150 8 -187 23 -188 77 0 39 37 53 148 56 98
2 102 1 130 -26 15 -15 31 -24 35 -20 13 13 7 40 -14 59 -18 16 -40 19 -143
22 -85 2 -128 -1 -146 -10z"/>
<path d="M1132 1163 c-33 -48 -152 -279 -152 -296 0 -31 28 -17 47 23 l18 39
131 1 130 0 15 -32 c15 -33 43 -57 55 -46 6 6 -52 120 -138 273 -41 72 -73 84
-106 38z m74 -65 c15 -29 35 -65 45 -80 38 -53 20 -68 -81 -68 -107 0 -106 -2
-52 106 26 52 50 94 54 94 4 0 20 -24 34 -52z"/>
<path d="M1690 1020 l0 -170 151 0 c83 0 159 4 169 10 10 5 28 26 40 46 21 32
22 45 18 137 -5 94 -7 102 -32 124 -26 22 -34 23 -187 23 l-159 0 0 -170z
m293 135 c31 -13 47 -60 47 -135 0 -39 -4 -80 -10 -90 -15 -29 -65 -40 -181
-40 l-109 0 0 79 c0 43 -3 106 -7 141 l-6 63 124 -5 c68 -3 132 -9 142 -13z"/>
<path d="M2390 1171 c0 -10 9 -29 20 -43 10 -14 29 -49 40 -79 12 -30 40 -87
63 -127 53 -94 67 -93 123 8 23 41 50 84 59 95 17 20 56 100 69 143 6 16 3 22
-8 22 -15 0 -57 -55 -84 -109 -7 -14 -19 -37 -27 -51 -8 -14 -26 -46 -40 -72
-14 -27 -29 -48 -33 -48 -4 0 -30 46 -57 102 -72 146 -125 214 -125 159z"/>
<path d="M4640 1113 c-22 -43 -60 -114 -85 -158 -25 -44 -45 -86 -45 -93 0
-26 35 -6 55 31 l20 37 127 0 127 0 22 -40 c25 -44 55 -56 44 -17 -4 12 -34
74 -67 137 -113 215 -134 226 -198 103z m125 -49 c38 -71 43 -99 19 -108 -27
-10 -174 -7 -174 4 0 12 55 122 77 157 21 31 37 20 78 -53z"/>
<path d="M5220 1020 l0 -170 154 0 c153 0 155 0 187 27 43 36 59 79 59 158 0
52 -5 73 -24 104 -30 48 -46 51 -232 51 l-144 0 0 -170z m316 128 c21 -21 36
-151 23 -201 -13 -50 -34 -57 -180 -57 l-119 0 0 141 0 141 130 -4 c102 -3
133 -7 146 -20z"/>
<path d="M48 433 c7 -3 16 -2 19 1 4 3 -2 6 -13 5 -11 0 -14 -3 -6 -6z"/>
<path d="M380 392 c0 -11 25 -16 190 -33 57 -6 113 -15 124 -21 11 -6 101 -14
200 -19 185 -8 235 -12 319 -31 53 -11 101 -1 57 12 -63 20 41 9 145 -15 61
-14 133 -25 160 -25 28 0 105 -7 170 -15 66 -9 237 -20 380 -25 143 -5 331
-16 417 -24 243 -23 450 -31 475 -17 16 8 22 8 26 -2 5 -17 299 -17 305 1 5
16 53 15 99 -3 22 -8 107 -18 201 -24 90 -6 167 -13 172 -16 4 -3 18 -1 31 3
14 6 39 4 65 -4 41 -12 286 -44 339 -44 16 0 24 4 20 11 -7 11 177 8 435 -7
74 -5 200 -8 280 -6 98 1 140 -1 130 -8 -11 -7 -3 -10 30 -10 176 -3 1006 -13
1140 -13 213 -1 764 19 899 33 151 16 270 38 294 55 25 18 90 20 119 4 17 -9
45 -6 129 11 102 22 108 24 111 49 2 21 9 27 33 29 54 7 73 43 38 74 -31 27
-63 32 -83 13 -12 -10 -47 -20 -92 -26 -351 -40 -353 -41 -362 -65 -3 -8 -17
-14 -31 -14 -15 0 -24 4 -20 9 9 15 -76 23 -125 12 -25 -6 -60 -11 -79 -11
-26 0 -32 -3 -27 -16 5 -14 1 -16 -32 -10 -21 3 -78 -1 -127 -10 -71 -12 -93
-13 -112 -3 -18 9 -32 10 -62 1 -21 -7 -51 -12 -67 -11 -29 1 -29 1 -4 9 23 7
22 8 -15 16 -87 19 -448 5 -590 -23 -26 -5 -28 -4 -17 10 11 13 10 16 -10 19
-13 2 -36 -1 -53 -6 l-30 -10 25 -7 c18 -5 9 -7 -32 -8 -31 -1 -58 4 -60 9
-10 32 -238 35 -523 9 -76 -7 -150 -7 -240 0 -71 6 -194 15 -273 20 -141 8
-169 14 -143 30 20 13 -135 22 -204 12 -33 -5 -49 -9 -35 -10 40 -2 70 -13 64
-22 -9 -16 -90 -10 -156 12 -75 24 -318 40 -318 20 0 -6 16 -11 38 -11 50 0
144 -28 137 -40 -4 -6 -53 -8 -123 -4 -103 5 -124 9 -176 35 -69 34 -132 38
-230 13 -62 -15 -65 -15 -146 10 -46 15 -103 26 -129 25 -160 -5 -572 3 -604
12 -20 5 -54 7 -75 3 l-37 -7 30 -13 30 -13 -34 -1 c-19 0 -43 8 -53 17 -18
16 -21 16 -49 -1 -27 -16 -45 -18 -133 -12 -144 10 -238 26 -257 43 -21 18
-136 32 -125 15 4 -7 15 -12 25 -12 9 0 26 -7 37 -16 18 -14 14 -15 -51 -10
-38 3 -104 10 -145 16 -41 6 -98 8 -126 4 -41 -5 -57 -2 -85 15 -19 12 -40 21
-46 21 -23 0 -13 -16 20 -33 l32 -16 -55 5 c-91 9 -271 35 -335 48 -52 11 -63
11 -75 -2 -11 -12 -31 -13 -102 -8 -48 4 -96 10 -105 13 -12 5 -14 3 -8 -6 6
-11 -3 -12 -44 -6 -34 5 -51 3 -51 -4 0 -14 -27 -15 -32 -1 -3 10 -94 30 -137
30 l-26 -1 25 -14 c50 -29 -62 -18 -152 15 -85 31 -138 38 -138 19 0 -11 -49
-9 -152 8 -24 3 -38 2 -38 -5z m1520 -122 c0 -13 -20 -13 -40 0 -12 8 -9 10
13 10 15 0 27 -4 27 -10z m90 0 c13 -9 13 -10 0 -9 -8 1 -26 5 -40 9 l-25 8
25 1 c14 0 32 -4 40 -9z m1897 -42 c20 -16 -2 -28 -52 -28 -49 1 -80 20 -62
39 14 15 92 7 114 -11z m-746 -24 c17 -8 28 -18 26 -21 -8 -8 -77 17 -77 28 0
13 17 11 51 -7z m3125 -24 c13 0 24 -4 24 -10 0 -11 -39 -13 -64 -4 -9 3 -16
11 -16 16 0 6 7 7 16 4 9 -3 27 -6 40 -6z m-544 -78 c-18 -5 -36 13 -28 27 4
7 13 4 24 -7 14 -13 15 -18 4 -20z m288 28 c0 -5 -9 -10 -20 -10 -11 0 -20 5
-20 10 0 6 9 10 20 10 11 0 20 -4 20 -10z m-360 -30 c0 -5 -7 -10 -16 -10 -8
0 -12 5 -9 10 3 6 10 10 16 10 5 0 9 -4 9 -10z m1307 4 c-3 -3 -12 -4 -19 -1
-8 3 -5 6 6 6 11 1 17 -2 13 -5z"/>
<path d="M743 383 c9 -2 25 -2 35 0 9 3 1 5 -18 5 -19 0 -27 -2 -17 -5z"/>
<path d="M2008 343 c6 -2 18 -2 25 0 6 3 1 5 -13 5 -14 0 -19 -2 -12 -5z"/>
<path d="M4040 241 c0 -11 31 -24 39 -16 3 3 -1 10 -9 15 -19 12 -30 12 -30 1z"/>
</g>
</svg>
