<?xml version="1.0" encoding="UTF-8" standalone="no"?>
<svg
   xmlns:dc="http://purl.org/dc/elements/1.1/"
   xmlns:cc="http://creativecommons.org/ns#"
   xmlns:rdf="http://www.w3.org/1999/02/22-rdf-syntax-ns#"
   xmlns:svg="http://www.w3.org/2000/svg"
   xmlns="http://www.w3.org/2000/svg"
   viewBox="0 0 650 190"
   height="50.00"
   width="170.00"
   xml:space="preserve"
   id="svg2"
   version="1.1"><metadata
     id="metadata8"><rdf:RDF><cc:Work
         rdf:about=""><dc:format>image/svg+xml</dc:format><dc:type
           rdf:resource="http://purl.org/dc/dcmitype/StillImage" /></cc:Work></rdf:RDF></metadata><defs
     id="defs6"><clipPath
       id="clipPath18"
       clipPathUnits="userSpaceOnUse"><path
         id="path16"
         d="M 0,141.732 H 425.197 V 0 H 0 Z" /></clipPath></defs><g
     transform="matrix(1.3333333,0,0,-1.3333333,0,188.976)"
     id="g10"><g
       id="g12"><g
         clip-path="url(#clipPath18)"
         id="g14"><g
           transform="translate(48.6177,100.7061)"
           id="g20"><path
             id="path22"
             style="fill:#231f20;fill-opacity:1;fill-rule:nonzero;stroke:none"
             d="m 0,0 c 0,11.758 3.983,17.418 16.583,17.418 h 24.103 c 11.439,0 14.592,-5.334 14.592,-11.571 V 1.865 h -5.531 v 2.118 c 0,7.912 -4.882,8.289 -10.668,8.289 h -21.85 c -6.045,0 -10.932,-1.794 -10.932,-9.895 v -17.481 c 0,-8.102 4.887,-9.903 10.932,-9.903 h 22.042 c 8.484,0 10.931,1.801 10.931,8.104 v 2.889 h 5.909 v -3.146 c 0,-8.42 -2.702,-12.989 -15.749,-12.989 H 16.583 C 3.983,-30.149 0,-24.489 0,-12.729 Z" /></g><g
           transform="translate(167.334,103.083)"
           id="g24"><path
             id="path26"
             style="fill:#231f20;fill-opacity:1;fill-rule:nonzero;stroke:none"
             d="M 0,0 C 0,8.101 -4.887,9.896 -10.925,9.896 H -36.442 C -42.486,9.896 -47.371,8.101 -47.371,0 v -17.48 c 0,-8.103 4.885,-9.904 10.929,-9.904 h 25.517 c 6.038,0 10.925,1.801 10.925,9.904 z m -53.671,-2.377 c 0,11.758 3.986,17.418 16.587,17.418 h 26.798 c 12.6,0 16.585,-5.66 16.585,-17.418 v -12.728 c 0,-11.761 -3.985,-17.421 -16.585,-17.421 h -26.798 c -12.601,0 -16.587,5.66 -16.587,17.421 z" /></g><g
           transform="translate(220.874,94.5977)"
           id="g28"><path
             id="path30"
             style="fill:#231f20;fill-opacity:1;fill-rule:nonzero;stroke:none"
             d="m 0,0 c 7.006,0 9.969,1.865 9.969,6.75 v 4.242 c 0,5.205 -2.251,6.874 -11.51,6.874 H -30.205 L -30.205,0 Z M -36.504,23.012 H 0.712 c 13.432,0 15.551,-4.437 15.551,-13.179 v -3.79 c 0,-6.561 -3.726,-8.361 -8.545,-8.806 v -0.13 c 6.426,-1.153 7.968,-4.498 7.968,-8.741 V -23.523 H 9.769 v 10.218 c 0,7.265 -3.532,8.162 -9.253,8.162 h -30.721 v -18.38 h -6.299 z" /></g><g
           transform="translate(243.3682,117.6094)"
           id="g32"><path
             id="path34"
             style="fill:#231f20;fill-opacity:1;fill-rule:nonzero;stroke:none"
             d="M 0,0 H 7.078 L 29.632,-40.877 52.195,0 h 7.074 L 33.497,-46.535 h -7.72 z" /></g><g
           transform="translate(362.6006,103.083)"
           id="g36"><path
             id="path38"
             style="fill:#231f20;fill-opacity:1;fill-rule:nonzero;stroke:none"
             d="M 0,0 C 0,8.101 -4.884,9.896 -10.922,9.896 H -36.44 C -42.483,9.896 -47.368,8.101 -47.368,0 v -17.48 c 0,-8.103 4.885,-9.904 10.928,-9.904 h 25.518 c 6.038,0 10.922,1.801 10.922,9.904 z m -53.667,-2.377 c 0,11.758 3.986,17.418 16.58,17.418 h 26.804 c 12.601,0 16.585,-5.66 16.585,-17.418 v -12.728 c 0,-11.761 -3.984,-17.421 -16.585,-17.421 h -26.804 c -12.594,0 -16.58,5.66 -16.58,17.421 z" /></g><g
           transform="translate(45.9019,48.3379)"
           id="g40"><path
             id="path42"
             style="fill:#ed1c24;fill-opacity:1;fill-rule:nonzero;stroke:none"
             d="M 0,0 C -0.178,-0.052 -0.437,-0.092 -0.644,-0.143 -0.035,-0.127 0.272,-0.092 0,0" /></g><g
           transform="translate(37.2158,47.1729)"
           id="g44"><path
             id="path46"
             style="fill:#ed1c24;fill-opacity:1;fill-rule:nonzero;stroke:none"
             d="M 0,0 C 2.26,0.184 5.826,0.488 8.042,1.022 6.034,0.957 0.605,1.049 0,0" /></g><g
           transform="translate(46.1675,49.9795)"
           id="g48"><path
             id="path50"
             style="fill:#ed1c24;fill-opacity:1;fill-rule:nonzero;stroke:none"
             d="M 0,0 -2.778,-0.536 C -1.126,-0.666 -1.47,-0.224 0,0" /></g><g
           transform="translate(45.208,48.96)"
           id="g52"><path
             id="path54"
             style="fill:#ed1c24;fill-opacity:1;fill-rule:nonzero;stroke:none"
             d="m 0,0 0.183,-0.348 1.46,0.481 z" /></g><g
           transform="translate(188.7012,54.0391)"
           id="g56"><path
             id="path58"
             style="fill:#ed1c24;fill-opacity:1;fill-rule:nonzero;stroke:none"
             d="M 0,0 C -0.275,-0.165 -0.449,-0.34 -0.306,-0.559 Z" /></g><g
           transform="translate(195.1543,55.917)"
           id="g60"><path
             id="path62"
             style="fill:#ed1c24;fill-opacity:1;fill-rule:nonzero;stroke:none"
             d="M 0,0 C 0.577,0.081 0.983,0.122 1.334,0.148 0.922,0.162 0.598,0.113 0,0" /></g><g
           transform="translate(182.7925,53.9932)"
           id="g64"><path
             id="path66"
             style="fill:#ed1c24;fill-opacity:1;fill-rule:nonzero;stroke:none"
             d="M 0,0 1.161,-0.009 C 0.796,0.024 0.381,0.037 0,0" /></g><g
           transform="translate(110.6719,51.7607)"
           id="g68"><path
             id="path70"
             style="fill:#ed1c24;fill-opacity:1;fill-rule:nonzero;stroke:none"
             d="M 0,0 C -1.062,-0.334 -2.05,-0.639 -2.811,-0.852 -0.722,-1 -0.566,-0.388 0,0" /></g><g
           transform="translate(224.9014,62.1201)"
           id="g72"><path
             id="path74"
             style="fill:#ed1c24;fill-opacity:1;fill-rule:nonzero;stroke:none"
             d="M 0,0 0.28,-0.289 C 0.591,-0.148 0.741,-0.017 0,0" /></g><g
           transform="translate(196.5425,60.8584)"
           id="g76"><path
             id="path78"
             style="fill:#ed1c24;fill-opacity:1;fill-rule:nonzero;stroke:none"
             d="m 0,0 c -0.016,-0.173 0.048,-0.297 0.164,-0.38 l 0.34,0.081 z" /></g><g
           transform="translate(178.2051,54.4189)"
           id="g80"><path
             id="path82"
             style="fill:#ed1c24;fill-opacity:1;fill-rule:nonzero;stroke:none"
             d="M 0,0 -0.067,0.026 -1,-0.199 C -0.5,-0.234 -0.17,-0.167 0,0" /></g><g
           transform="translate(234.0312,62.751)"
           id="g84"><path
             id="path86"
             style="fill:#ed1c24;fill-opacity:1;fill-rule:nonzero;stroke:none"
             d="M 0,0 C 0.401,0.175 0.784,0.388 1.127,0.671 0.245,0.518 -0.164,0.221 0,0" /></g><g
           transform="translate(196.6392,56.0713)"
           id="g88"><path
             id="path90"
             style="fill:#ed1c24;fill-opacity:1;fill-rule:nonzero;stroke:none"
             d="m 0,0 0.014,0.014 -0.165,-0.02 z" /></g><g
           transform="translate(187.1499,60.2197)"
           id="g92"><path
             id="path94"
             style="fill:#ed1c24;fill-opacity:1;fill-rule:nonzero;stroke:none"
             d="M 0,0 C 0.489,0.062 0.953,0.115 1.484,0.196 0.857,0.245 0.326,0.14 0,0" /></g><g
           transform="translate(110.6719,51.7607)"
           id="g96"><path
             id="path98"
             style="fill:#ed1c24;fill-opacity:1;fill-rule:nonzero;stroke:none"
             d="M 0,0 0.895,0.283 C 0.466,0.245 0.204,0.138 0,0" /></g><g
           transform="translate(53.4819,48.3135)"
           id="g100"><path
             id="path102"
             style="fill:#ed1c24;fill-opacity:1;fill-rule:nonzero;stroke:none"
             d="M 0,0 C 0.908,0.078 1.105,0.299 1.256,0.531 0.759,0.386 0.326,0.221 0,0" /></g><g
           transform="translate(379.7471,53.9844)"
           id="g104"><path
             id="path106"
             style="fill:#ed1c24;fill-opacity:1;fill-rule:nonzero;stroke:none"
             d="M 0,0 C 0.054,-0.045 0.132,-0.078 0.15,-0.137 0.146,-0.057 0.04,-0.023 0,0" /></g><g
           transform="translate(346.708,56.1387)"
           id="g108"><path
             id="path110"
             style="fill:#ed1c24;fill-opacity:1;fill-rule:nonzero;stroke:none"
             d="M 0,0 C -0.159,-0.06 -0.326,-0.127 -0.466,-0.219 -0.162,-0.302 0,-0.173 0,0" /></g><g
           transform="translate(300.3994,64.0664)"
           id="g112"><path
             id="path114"
             style="fill:#ed1c24;fill-opacity:1;fill-rule:nonzero;stroke:none"
             d="m 0,0 -0.159,0.104 -1.992,-0.331 0.165,-0.097 z m 40.993,-1.101 c -1.493,-0.043 -1.092,-1.126 -3.534,-0.546 1.842,0.107 1.583,1.102 3.534,0.546 m -58.538,-1.045 c 2.48,-0.232 -1.17,-0.843 0.458,-1.086 l -1.302,0.038 c 2.114,-0.548 1.492,0.641 2.968,0.501 l -0.981,0.091 c -0.8,0.515 1.502,0.386 1.682,0.806 -1.162,0.192 -3.808,-0.253 -2.825,-0.35 m 52.67,0.194 c 1.45,-0.455 1.634,-0.31 2.626,-0.175 -0.318,0.216 -1.623,0.305 -2.626,0.175 m -39.489,-0.323 -1.814,-0.167 0.65,-0.157 c 0,-0.186 0.344,-0.469 -0.146,-0.598 -0.312,-0.019 -0.601,-0.043 -0.857,-0.084 0.418,0.003 0.684,0.041 0.857,0.084 1.323,0.072 2.957,0.024 3.108,0.571 -0.509,-0.207 -2.965,-0.227 -2.788,0.188 z m -23.939,-1.815 1.351,0.744 2.14,-0.029 z m -40.149,-0.781 c -1.022,-0.038 -1.32,0.049 -1.202,-0.447 -0.491,-0.216 -1.313,0.024 -1.812,-0.195 2.014,-0.383 1.865,0.408 3.014,0.642 0.269,0.011 0.582,0.026 0.957,0.064 -0.409,0.025 -0.706,-0.013 -0.957,-0.064 m 1.424,-1.014 c 0.819,0.273 4.6,-0.219 5.115,0.766 1.289,-1.068 -3.153,-0.928 -5.115,-0.766 m 73.799,1.784 c 0.65,-0.15 -0.863,-0.781 -2.329,-0.625 l 0.787,-0.779 c 0.03,0.521 2.984,0.47 3.313,0.521 0.525,0.727 -0.631,0.415 -1.771,0.883 m 57.741,-2.45 c 0.169,0.162 -0.152,0.364 0.347,0.58 l 0.987,0.172 c 1.318,-0.293 -0.181,-0.681 -1.334,-0.752 m -13.13,0.294 c -0.389,0.1 -0.734,0.187 -0.89,0.302 l -0.18,-0.149 c 0.401,-0.291 0.746,-0.239 1.07,-0.153 0.429,-0.105 0.932,-0.207 1.458,-0.312 0.294,-0.553 -1.774,-0.763 -2.337,-1.051 0.989,0.118 1.859,0.558 3.141,0.167 -0.181,-0.146 -0.025,-0.265 -0.842,-0.202 l 1.787,-0.233 c 2.087,0.61 0.14,0.96 -1.749,1.319 -0.06,0.118 -0.205,0.248 -0.55,0.407 -0.311,0.092 -0.602,-0.02 -0.908,-0.095 m 10.833,-1.331 c -0.348,-0.574 -0.277,-1.381 -3.237,-0.798 -0.086,0.631 0.735,0.579 -0.334,1.383 0.997,0.086 1.784,-0.226 2.277,-0.315 -0.677,-0.055 -1.461,0.256 -1.671,-0.146 1.104,-0.307 2.259,-0.3 2.965,-0.124 0.121,0.204 0.309,0.377 0.701,0.452 -0.017,-0.191 -0.283,-0.352 -0.701,-0.452 m 2.089,-0.162 c -0.267,-0.291 -0.997,-0.556 -1.383,-0.795 0.386,-0.057 1.224,-0.078 1.52,-0.087 z m -20.37,0.421 c 0.496,-0.076 2.636,0.04 2.038,0.479 z m 3.375,0.889 1.081,0.892 -1.003,-0.113 z m -20.33,1.364 -3.143,-0.323 c 0.591,-0.952 2.804,0.032 4.27,-0.178 0.523,0.458 -0.641,0.175 -1.127,0.501 M -2.655,-5.229 c -0.183,-0.418 3.416,-1.122 4.259,-0.33 -1.814,0.092 -3.782,0.025 -4.259,0.33 m -68.829,-0.798 2.644,0.207 -2.801,-0.111 z m -27.807,-0.224 2.127,0.008 c -0.321,-0.065 -2.472,-0.593 -4.275,-0.542 2.272,-1.391 0.822,0.283 4.604,-0.173 -4.359,-0.129 -2.637,-0.983 -2.432,-1.565 0.85,0.87 6.454,0.557 4.745,2.255 -1.486,-0.412 -3.597,1.141 -4.769,0.017 m -36.388,-2.413 -4.439,-0.485 0.116,0.122 -0.279,-0.025 0.816,0.558 -0.537,-0.533 z m -5.263,0.009 -2.626,-0.518 1.31,0.52 -3.945,-1.04 c 2.314,-0.329 4.942,0.453 5.261,1.038 m -3.795,0.142 c 0.419,0.213 -0.677,0.408 0.991,0.739 0.218,-0.284 -0.306,-0.544 -0.991,-0.739 -0.152,-0.067 -0.507,-0.151 -1.306,-0.24 0.442,0.043 0.891,0.135 1.306,0.24 m -30.103,-1.28 c -0.109,0.132 -0.069,0.307 0.094,0.455 0.328,0.073 0.607,0.165 0.736,0.305 -0.297,-0.014 -0.572,-0.149 -0.736,-0.305 -0.855,-0.188 -2.13,-0.175 -2.722,-0.018 0.326,0.329 1.644,0.339 2.144,0.574 -1.984,0.652 -6.25,-1.855 -5.112,0.352 -0.828,-0.312 -3.612,-1.048 -2.615,-1.352 2.234,0.269 6.478,0.304 8.211,-0.011 0.094,-0.108 0.295,-0.186 0.68,-0.184 -0.129,0.068 -0.381,0.127 -0.68,0.184 m -23.005,-1.119 1.14,0.124 0.51,-0.288 z m -21.541,-1.294 1.984,0.191 -1.011,0.562 z m 73.352,5.545 c 0.484,-0.04 -2.967,-0.054 -4.288,-0.078 0.814,0.315 3.951,0.525 4.288,0.078 m 15.146,1.415 -3.131,-0.221 c 0.987,-0.067 2.973,-0.205 3.131,0.221 m -21.074,-1.048 0.912,0.307 c -0.136,0.132 0,0.275 1.065,0.364 l -1.065,-0.364 c 0.239,-0.264 1.47,-0.501 -0.912,-0.307 m 23.232,1.345 1.083,-0.075 c 1.287,-0.316 1.603,-1.308 3.346,-0.225 l -3.346,0.225 c -0.3,0.075 -0.657,0.104 -1.083,0.075 m -2.665,-2.613 c 2.631,0.524 2.799,0.947 4.79,1.852 -2.634,0.262 -3.299,-0.905 -2.971,-1.358 -1.819,-0.494 -1.488,0.097 -2.468,0.165 z m -0.16,1.666 c -1.81,-0.488 -5.098,-1.134 -4.768,-1.595 -0.166,0.882 2.468,1.401 3.298,1.433 0.477,-0.032 0.817,0.034 1.47,0.162 m 93.422,2.734 c -1.337,-0.227 -3.178,-1.447 -5.796,-0.855 l 1.979,0.337 -0.485,0.051 0.498,0.478 c -0.533,-1.265 2.637,-0.081 3.804,-0.011 m -77.098,-1.267 c -2.155,-0.013 -3.969,-0.739 -3.467,-1.297 1.792,0.207 4.438,0.181 5.428,0.884 -0.988,-0.441 0.523,1.006 -1.961,0.413 m 10.536,0.412 0.507,-0.035 -1.839,-0.469 z m 43.515,1.359 c 0.022,0.52 2.314,0.649 2.99,1.024 0.989,-0.092 -0.34,-0.58 -0.688,-0.892 0.494,-0.046 0.828,0.005 1.488,0.119 -0.358,-1.098 -1.8,0.339 -3.79,-0.251 m 39.099,0.825 -0.389,-0.111 0.389,0.111 c 1.533,0.406 2.178,-0.521 3.409,0.409 -1.544,0.752 -2.533,-0.072 -3.409,-0.409 m -22.254,-4.583 -1.995,-0.334 0.165,-0.103 1.98,0.337 z m -20.082,-0.305 0.801,-0.504 1.008,0.435 z m -130.498,-1.983 c -0.656,-0.401 1,-0.049 1.478,-0.067 l -2.301,-0.244 c -0.328,0.195 0.496,0.241 0.823,0.311 m 130.469,7.035 -1.415,-0.095 c -0.281,0.038 -0.58,0.038 -0.901,-0.056 l 0.901,0.056 c 0.727,-0.086 1.274,-0.395 1.415,0.095 m 78.827,1.478 c 2.283,-0.443 4.643,0.415 6.636,0.45 l -0.685,-0.362 2.006,0.294 -0.025,-0.526 c 3.316,0.245 7.421,-0.377 8.653,0.418 l -0.402,-0.822 3.529,0.585 -2.03,-0.521 c 3.952,-0.234 9.968,0.236 10.814,0.168 l -0.366,-0.297 c 0.649,-0.183 1.164,0 1.838,0.075 L 43.81,-1.173 c 5.967,-0.105 7.537,-1.197 14.2,-1.145 1.805,-0.224 -1.011,-0.089 -1.049,-0.348 0.96,-0.426 3.313,-0.222 3.822,-0.052 -0.574,-0.689 -3.345,-0.291 -1.272,-1.008 1.528,0.267 -1.073,-0.609 1.588,-0.625 l 1.102,0.866 c 1.386,-0.222 0.435,-0.836 2.391,-0.723 2.598,0.455 -3.192,1.008 0.998,1.216 2.196,-0.054 4.6,-1.979 8.903,-1.931 3.622,-1.091 -2.09,-0.989 2.91,-1.792 -1.089,0.106 -2.167,0.06 -3.225,-0.006 0.754,-0.39 0.21,-0.706 2.256,-0.919 0.695,0.203 2.127,0.329 3.174,-0.253 -2.258,0.668 -1.347,-0.038 -0.641,-0.673 0.718,-0.74 0.966,-1.386 -0.512,-0.944 0.372,-0.176 0.671,-0.372 0.893,-0.572 -0.117,0.046 -0.201,0.003 -0.201,-0.089 0.3,-0.269 0.368,-0.517 0.432,-0.766 -0.078,0.368 -1.73,1.211 -1.399,0.206 0.364,-0.356 0.372,-0.477 0.294,-0.488 -0.324,-0.102 -0.16,-0.021 -0.218,-0.041 0.226,0.006 0.104,0.146 -0.75,-0.7 -0.247,-0.359 -0.288,-0.089 -0.728,-0.101 -0.744,0.138 -1.9,0.247 -3.159,0.216 0.326,0.273 1.402,0.311 1.073,0.688 -1.981,0.536 -1.69,-0.331 -3.679,0.21 l 0.927,0.361 c -0.183,-0.143 -0.469,-0.178 -0.027,-0.256 0.695,-0.309 1.008,-0.04 1.046,0.221 -0.623,0.62 -2.812,0.337 -3.444,-0.013 -2.799,0.078 -0.583,0.941 -1.198,1.103 -0.736,-0.432 -1.917,-0.448 -3.208,-0.413 -0.73,0.032 -1.115,0.021 -2.22,0.113 -0.604,0.046 -1.154,0.062 -1.615,-0.014 l 1.207,0.491 c -2.191,0.831 -4.237,0.388 -5.549,0.27 l 0.533,0.434 c -3.121,0.099 -4.579,1.782 -7.046,0.245 l 0.353,0.3 c -1.277,0.193 -3.205,0.62 -4.463,0.177 -0.003,0.195 -0.227,0.445 -0.736,0.529 -0.728,-0.618 -2.027,-0.079 -3.923,0.116 1.265,0.107 0.896,0.951 2.225,1.101 -2.89,0.96 -2.707,-0.81 -5.162,-0.708 -1.458,0.463 1.334,0.426 1.698,0.708 -3.804,-0.312 -7.747,2.092 -10.173,0.499 l 1.61,-0.563 c -1.513,-0.323 -2.332,-0.305 -2.146,-0.15 0.485,-0.066 0.652,0.085 0.832,0.239 -4.544,0.973 -7.137,-1.124 -11.724,-0.749 0.349,0.309 1.004,0.401 1.029,0.666 -2.113,0.334 -2.065,-1.594 -5.472,-0.933 l 0.663,0.359 c -1.132,0.226 -1.984,-0.308 -1.828,-0.411 -0.094,1.408 -7.226,-0.102 -9.617,1.72 -1.679,-0.767 -6.461,-1.45 -7.93,-1.035 -2.119,0.814 1.844,0.946 1.051,1.72 -1.652,-0.011 -2.507,-0.798 -4.96,-0.555 -0.029,-0.782 4.868,-1.521 0.259,-2.03 l -0.65,0.413 c 0.48,-0.055 1.141,-0.2 1.812,-0.092 1.315,0.48 -0.812,0.515 -1.124,0.722 l -4.946,-0.31 c -0.364,-0.841 2.603,-0.593 2.922,-0.803 -3.936,0.116 -8.674,1.259 -12.308,0.644 l 0.329,0.315 c -4.637,-0.781 -2.744,1.478 -6.407,0.087 -1.968,0.178 0.677,0.887 -2.28,0.903 -0.823,-0.005 -0.334,-0.313 -0.176,-0.418 -3.633,-0.35 -1.619,0.762 -4.948,-0.062 l 0.698,0.903 c -3.988,-0.674 -8.136,-2.286 -11.594,-1.965 0.199,0.679 2.332,0.652 3.17,1.186 -4.647,-1.307 -11.202,-0.347 -15.499,-1.076 1.302,-0.558 -2.017,-1.38 0.766,-1.813 0.69,0.892 1.989,0.339 3.465,0.458 -2.347,-1.955 -10.015,0.771 -10.709,-0.927 l -0.643,0.66 c -0.661,-0.116 -2.324,-0.671 -1.168,-0.852 l -4.766,0.313 c 1.658,0.557 5.152,1.827 6.273,1.124 1.345,0.755 -1.959,0.429 -0.779,1.283 -3.154,-1.211 -1.963,0.429 -5.261,0.097 1.506,-0.941 -3.251,-1.412 -3.081,-1.884 -1.095,0.156 -3.48,-0.361 -4.4,-0.715 -1.9,-0.142 -6.291,0.537 -9.355,0.121 1.159,0.337 2.975,0.79 2.83,1.413 -1.496,-0.393 -3.146,-0.428 -3.45,0.291 5.296,1.469 1.765,-1.628 6.568,-0.647 1.173,0.86 2.48,1.095 4.963,1.404 -1.141,0.45 -0.647,0.669 -1.135,1.23 -2.992,-1.83 -7.906,-0.367 -11.868,-1.342 -1.652,-0.551 -0.361,-1.612 -4.162,-1.933 l 3.291,-0.421 c -3.607,0.367 -0.838,-0.549 -3.793,-0.846 l 1.162,0.609 c -1.809,0.049 -2.472,-0.067 -3.458,-0.52 l 1.493,0.93 c -0.978,0.08 -2.787,0.129 -2.789,-0.388 -0.259,0.202 -0.351,0.366 -0.353,0.517 -0.192,-0.153 -0.656,-0.259 -1.793,-0.269 0.66,0.118 1.151,0.084 1.151,0.344 -4.343,-0.358 -1.044,0.914 -3.75,0.74 0.429,0.217 -0.361,0.441 -1.334,0.517 0.122,-1.381 -5.221,-1.744 -6.617,-2.563 l 0.01,0.024 -3.611,-0.683 c 0.722,0.138 -0.081,0.489 -1.147,0.604 l 0.174,-0.005 c -1.167,0.175 1.314,1.55 -2.131,1.032 l -1.817,-0.471 c 0.319,0.059 0.007,0.261 -0.17,0.366 l -1.872,-0.461 c -2.921,1.17 -5.399,-0.965 -8.82,-0.48 0.991,-0.064 2.475,0.098 1.814,0.489 -0.652,0.129 -1.649,-0.066 -2.137,-0.289 l 0.167,0.159 -6.429,-1.135 c 0.504,0.491 4.122,0.683 2.475,1.138 -0.977,0.59 -2.802,-0.159 -3.945,-0.253 0.163,-0.362 2.303,-0.594 0.157,-0.879 -0.27,0.167 -2.328,0.455 -1.382,0.755 -2.193,-0.467 -5.399,-0.831 -7.325,-1.564 -0.647,0.135 0.33,0.328 0.66,0.394 l 0.167,-0.103 c 1.31,0.262 0.152,0.949 2.788,0.679 0.156,1.202 -3.776,0.187 -6.086,0.227 l 3.611,0.984 c -6.235,1.363 -14.454,-0.893 -20.548,-1.23 1.819,-0.272 3.296,0.16 3.133,-0.787 -3.769,-0.652 -3.278,-0.421 -7.06,-0.808 l 0.328,0.064 c -1.982,0.372 -4.592,-0.692 -5.931,0.078 0.828,0.561 2.816,-0.331 2.798,0.712 -1.586,-0.116 -3.179,-0.216 -4.757,-0.347 1.459,0.716 4.757,0.339 6.569,0.585 1.306,0.013 -2.624,-0.281 -1.979,-0.928 4.449,0.269 5.433,0.995 7.566,2.087 1.294,0.795 -1.977,0.633 -2.804,0.595 -2.781,-1.24 -6.895,-1.919 -11.34,-1.725 l -2.468,0.634 c -2.14,-0.852 -1.129,-2.202 -5.071,-2.27 l 1.144,0.633 c -0.868,0.17 -1.461,0.211 -1.866,0.184 1.665,0.531 3.461,1.129 4.966,1.668 -2.321,1.065 -6.409,-0.998 -9.694,-1.45 0.164,0.161 1.315,0.285 1.631,0.61 -4.932,-0.025 -9.987,-1.777 -13.774,-2.205 -1.648,0.42 3.118,0.544 2.294,1.274 -1.978,-0.418 -4.288,0.105 -4.779,-0.663 0.81,1.095 -4.594,-0.262 -0.841,0.986 -7.232,-0.086 -15.081,-1.617 -22.303,-2.743 0.33,0.342 0.307,0.601 -0.027,0.784 2.464,0.17 6.071,0.734 7.376,1.553 -1.662,0.406 -3.769,-0.989 -4.269,-0.712 0.821,0.318 2.455,0.429 2.437,0.951 -2.14,0.426 -3.274,-0.482 -4.755,-0.692 l 0.841,-0.202 c -4.571,-1.06 -2.423,-1.968 -7.341,-2.097 -1.838,0.477 -0.028,0.515 -0.055,1.302 -1.136,-0.413 -4.936,0.129 -6.065,-0.801 l 2.974,0.184 c -2.066,-0.394 -4.036,-0.559 -5.445,-0.947 0.137,0.178 0.245,0.359 0.67,0.458 -1.631,-0.385 -3.757,-0.507 -4.554,-1.091 l -0.534,0.792 c 1.007,-0.286 3.959,-0.099 4.432,0.41 -0.348,0.698 -3.302,0 -4.616,-0.054 5.745,0.717 5.705,2.021 10.64,1.89 l -0.81,-0.329 c 3.091,-0.367 6.119,0.94 8.794,1.097 -0.762,0.118 -0.946,0.406 -0.605,0.571 5.938,-0.215 11.688,0.709 18.427,0.806 l 1.947,0.971 0.19,-0.615 c 3.295,-0.038 0.634,0.932 2.767,1.03 -0.814,-0.057 -0.656,-0.154 -0.814,-0.321 3.769,0.989 2.148,-0.42 4.282,-0.079 -0.976,-0.73 -4.115,-0.536 -3.097,-1.352 3.764,0.997 9.694,0.945 10.154,2.501 7.102,-0.17 15.805,1.348 21.728,1.827 0.819,-0.221 -0.501,-0.231 -0.171,-0.426 2.305,0.998 7.914,-0.191 7.914,0.594 1.149,-0.157 1.647,-0.701 1.973,-0.895 1.485,0.453 3.282,0.736 5.194,0.943 l -1.395,-0.291 0.163,-0.094 1.961,0.404 -0.075,0.046 c 4.75,0.466 10.272,0.609 14.577,1.619 -2.481,-0.614 0.651,-0.911 -0.502,-1.266 2.146,1.334 7.412,1.591 11.694,1.647 0,-0.258 0.323,-0.453 -0.161,-0.685 l 2.464,0.62 -0.326,-0.326 c 4.458,-0.037 9.23,1.558 12.191,1.099 -1.804,-0.231 -1.807,-0.49 -1.97,-0.913 3.182,0.181 6.177,0.273 9.88,0.787 -0.191,-0.087 -0.327,-0.177 -0.33,-0.272 0.977,-0.073 2.147,0.272 3.138,0.455 l 0.16,-0.614 c 1.886,0.344 4.36,0.113 6.589,0.69 0.909,-0.658 5.467,0.822 8.081,0.622 0.992,0.181 -2.159,-0.792 0.647,-0.66 0.353,1.361 3.634,0.164 3.812,1.617 l 2.461,-0.474 0.509,0.744 c 2.127,-1.307 3.157,0.693 6.267,0.337 -0.161,-0.16 -0.49,-0.224 -0.334,-0.324 1,0.184 3.308,0.332 1.507,0.661 1.652,0.03 7.256,0.512 4.765,-0.318 0.17,0.417 -2.134,0.008 -3.124,-0.17 0.14,-0.623 2.623,-0.31 3.253,-0.973 0.081,0.067 0.4,0.183 0.631,0.291 l 0.369,-0.38 c 3.084,0.768 6.241,0.35 8.481,1.3 0.132,-0.19 0.68,-0.327 1.749,-0.251 l 0.03,0.779 3.291,0.054 -1.515,-1.167 c 3.623,-0.168 6.14,1.167 9.108,1.412 0.79,-1.297 5.79,0.592 8.392,-0.524 l -2.325,-0.39 c 4.96,0.318 5.758,-0.452 10.384,0.073 -3.935,0.369 -3.946,0.104 -9.687,1.075 5.752,-0.447 9.937,0.905 15.162,0.234 -0.346,-0.315 -1.661,-0.536 -0.367,-0.833 1.013,0.685 4.941,0.055 4.145,0.831 1.634,-0.24 1.936,-0.97 2.933,-1.062 l 5.456,1.051 -0.162,-0.158 C -10.442,-1.854 -2.421,1.32 6.974,0.587 L 6.787,0.172 9.13,0.8 c -1.839,-0.423 0.806,-0.523 0.948,-0.89 1.995,0.308 3.992,0.645 5.998,0.92 0.143,-0.364 -0.222,-1.194 -1.695,-1.021" /></g><g
           transform="translate(340.7295,56.8477)"
           id="g116"><path
             id="path118"
             style="fill:#ed1c24;fill-opacity:1;fill-rule:nonzero;stroke:none"
             d="M 0,0 C 0.596,-0.089 0.992,-0.1 1.32,-0.064 0.897,-0.024 0.469,0.005 0,0" /></g><g
           transform="translate(226.0498,55.3193)"
           id="g120"><path
             id="path122"
             style="fill:#ed1c24;fill-opacity:1;fill-rule:nonzero;stroke:none"
             d="M 0,0 C -0.057,0.138 -0.27,0.21 -0.55,0.248 -0.518,0.167 -0.383,0.081 0,0" /></g><g
           transform="translate(221.2842,54.8584)"
           id="g124"><path
             id="path126"
             style="fill:#ed1c24;fill-opacity:1;fill-rule:nonzero;stroke:none"
             d="M 0,0 -0.184,-0.006 -0.326,-0.062 Z" /></g><g
           transform="translate(54.9819,47.7559)"
           id="g128"><path
             id="path130"
             style="fill:#ed1c24;fill-opacity:1;fill-rule:nonzero;stroke:none"
             d="M 0,0 C -0.966,-0.755 0.981,-0.027 1.805,0.04 0.981,-0.027 0.633,0.423 0,0" /></g><g
           transform="translate(61.3296,49.4131)"
           id="g132"><path
             id="path134"
             style="fill:#ed1c24;fill-opacity:1;fill-rule:nonzero;stroke:none"
             d="M 0,0 C -0.473,-0.237 -1.14,-0.431 -1.984,-0.561 -1.459,-0.533 -0.875,-0.415 0,0" /></g><g
           transform="translate(56.0991,48.6797)"
           id="g136"><path
             id="path138"
             style="fill:#ed1c24;fill-opacity:1;fill-rule:nonzero;stroke:none"
             d="M 0,0 C 1.272,-0.032 2.354,0.035 3.247,0.173 2.423,0.135 1.698,0.329 0,0" /></g><g
           transform="translate(78.7534,50.5557)"
           id="g140"><path
             id="path142"
             style="fill:#ed1c24;fill-opacity:1;fill-rule:nonzero;stroke:none"
             d="m 0,0 c -0.981,-0.479 -2.961,-0.412 -2.961,-0.412 4.289,-0.067 -0.79,-0.835 -1.12,-1.17 C -1.454,-1.245 -1.47,-0.725 0,0" /></g><g
           transform="translate(84.3696,51.1846)"
           id="g144"><path
             id="path146"
             style="fill:#ed1c24;fill-opacity:1;fill-rule:nonzero;stroke:none"
             d="M 0,0 C -0.43,-0.03 -0.852,-0.044 -1.189,-0.006 -0.756,-0.081 -0.375,-0.06 0,0" /></g><g
           transform="translate(85.9854,50.9043)"
           id="g148"><path
             id="path150"
             style="fill:#ed1c24;fill-opacity:1;fill-rule:nonzero;stroke:none"
             d="M 0,0 C 1.468,0.204 1.941,0.708 2.597,1.113 0.796,1.317 -0.299,0.493 -1.616,0.28 -0.569,0.345 0.446,0.477 0,0" /></g><g
           transform="translate(131.5215,51.5293)"
           id="g152"><path
             id="path154"
             style="fill:#ed1c24;fill-opacity:1;fill-rule:nonzero;stroke:none"
             d="m 0,0 c -0.333,-0.067 -1.158,-0.107 -1.158,-0.366 l 2.461,0.118 C 2.294,-0.046 0.498,-0.027 0,0" /></g><g
           transform="translate(140.5474,53.2705)"
           id="g156"><path
             id="path158"
             style="fill:#ed1c24;fill-opacity:1;fill-rule:nonzero;stroke:none"
             d="M 0,0 C 1.975,0.146 0.988,-0.579 1.964,-0.375 L 1.805,0.507 Z" /></g><g
           transform="translate(139.2197,57.6855)"
           id="g160"><path
             id="path162"
             style="fill:#ed1c24;fill-opacity:1;fill-rule:nonzero;stroke:none"
             d="m 0,0 -0.571,-0.113 0.654,0.065 z" /></g><g
           transform="translate(150.0908,52.8955)"
           id="g164"><path
             id="path166"
             style="fill:#ed1c24;fill-opacity:1;fill-rule:nonzero;stroke:none"
             d="M 0,0 -1.326,-1.054 C 0.334,-0.717 0.314,0.07 0,0" /></g><g
           transform="translate(157.6475,52.5781)"
           id="g168"><path
             id="path170"
             style="fill:#ed1c24;fill-opacity:1;fill-rule:nonzero;stroke:none"
             d="M 0,0 -1.157,-0.356 2.464,0.1 Z" /></g><g
           transform="translate(166.6846,53.4453)"
           id="g172"><path
             id="path174"
             style="fill:#ed1c24;fill-opacity:1;fill-rule:nonzero;stroke:none"
             d="M 0,0 0.319,-0.193 2.8,0.162 Z" /></g><g
           transform="translate(265.415,57.0332)"
           id="g176"><path
             id="path178"
             style="fill:#ed1c24;fill-opacity:1;fill-rule:nonzero;stroke:none"
             d="M 0,0 C 0.361,0.839 -3.599,0.426 -4.753,0.623 -3.952,-0.407 -1.604,1.024 0,0" /></g><g
           transform="translate(337.3086,57.3223)"
           id="g180"><path
             id="path182"
             style="fill:#ed1c24;fill-opacity:1;fill-rule:nonzero;stroke:none"
             d="M 0,0 -3.784,-0.105 C -0.859,-0.496 -2.965,-0.13 0,0" /></g><g
           transform="translate(122.0361,41.7881)"
           id="g184"><path
             id="path186"
             style="fill:#231f20;fill-opacity:1;fill-rule:nonzero;stroke:none"
             d="M 0,0 -4.554,-7.698 H 4.55 Z M -1.147,1.501 H 1.14 L 9.193,-12.06 H 7.116 L 5.429,-9.194 H -5.436 L -7.117,-12.06 H -9.2 Z" /></g><g
           transform="translate(158.4092,37.1621)"
           id="g188"><path
             id="path190"
             style="fill:#231f20;fill-opacity:1;fill-rule:nonzero;stroke:none"
             d="m 0,0 c 0,3.917 -1.218,4.626 -3.464,4.626 h -9.608 V -5.936 h 9.308 C -1.531,-5.936 0,-5.45 0,-1.388 Z m -14.907,6.127 h 10.959 c 4.552,0 5.786,-1.421 5.786,-6.782 0,-4.979 -1.234,-6.779 -5.843,-6.779 h -10.902 z" /></g><g
           transform="translate(172.3853,43.2891)"
           id="g192"><path
             id="path194"
             style="fill:#231f20;fill-opacity:1;fill-rule:nonzero;stroke:none"
             d="M 0,0 H 2.06 L 8.638,-11.911 15.21,0 h 2.059 L 9.758,-13.561 H 7.515 Z" /></g><g
           transform="translate(217.4346,39.0576)"
           id="g196"><path
             id="path198"
             style="fill:#231f20;fill-opacity:1;fill-rule:nonzero;stroke:none"
             d="m 0,0 c 0,2.358 -1.423,2.884 -3.183,2.884 h -7.437 c -1.763,0 -3.189,-0.526 -3.189,-2.884 v -5.098 c 0,-2.361 1.426,-2.883 3.189,-2.883 h 7.437 c 1.76,0 3.183,0.522 3.183,2.883 z m -15.644,-0.693 c 0,3.423 1.165,5.076 4.833,5.076 H -3 c 3.672,0 4.839,-1.653 4.839,-5.076 V -4.41 C 1.839,-7.831 0.672,-9.48 -3,-9.48 h -7.811 c -3.668,0 -4.833,1.649 -4.833,5.07 z" /></g><g
           transform="translate(249.4492,34.5801)"
           id="g200"><path
             id="path202"
             style="fill:#231f20;fill-opacity:1;fill-rule:nonzero;stroke:none"
             d="m 0,0 c 0,-3.693 -1.202,-5.003 -4.59,-5.003 h -7.569 c -3.669,0 -4.833,1.649 -4.833,5.07 v 3.717 c 0,3.424 1.164,5.076 4.833,5.076 h 6.93 c 2.439,0 5.041,-0.598 5.041,-3.73 V 4.646 h -1.726 c 0,2.53 -0.766,2.715 -5.302,2.715 h -4.755 c -1.759,0 -3.185,-0.525 -3.185,-2.883 V -0.62 c 0,-2.361 1.426,-2.884 3.185,-2.884 h 7.176 c 1.836,0 2.959,0.636 2.959,2.509 V 0.366 H -8.79 V 1.873 H 0 Z" /></g><g
           transform="translate(270.668,41.7881)"
           id="g204"><path
             id="path206"
             style="fill:#231f20;fill-opacity:1;fill-rule:nonzero;stroke:none"
             d="M 0,0 -4.55,-7.698 H 4.556 Z M -1.14,1.501 H 1.146 L 9.197,-12.06 H 7.125 l -1.69,2.866 H -5.434 l -1.682,-2.866 h -2.078 z" /></g><g
           transform="translate(307.0469,37.1621)"
           id="g208"><path
             id="path210"
             style="fill:#231f20;fill-opacity:1;fill-rule:nonzero;stroke:none"
             d="m 0,0 c 0,3.917 -1.219,4.626 -3.464,4.626 h -9.609 V -5.936 h 9.304 c 2.23,0 3.769,0.486 3.769,4.548 z m -14.909,6.127 h 10.96 c 4.553,0 5.787,-1.421 5.787,-6.782 0,-4.979 -1.234,-6.779 -5.844,-6.779 h -10.903 z" /></g><g
           transform="translate(337.7129,39.0576)"
           id="g212"><path
             id="path214"
             style="fill:#231f20;fill-opacity:1;fill-rule:nonzero;stroke:none"
             d="m 0,0 c 0,2.358 -1.426,2.884 -3.186,2.884 h -7.437 c -1.76,0 -3.186,-0.526 -3.186,-2.884 v -5.098 c 0,-2.361 1.426,-2.883 3.186,-2.883 h 7.437 c 1.76,0 3.186,0.522 3.186,2.883 z m -15.642,-0.693 c 0,3.423 1.16,5.076 4.833,5.076 h 7.807 c 3.676,0 4.835,-1.653 4.835,-5.076 V -4.41 c 0,-3.421 -1.159,-5.07 -4.835,-5.07 h -7.807 c -3.673,0 -4.833,1.649 -4.833,5.07 z" /></g><g
           transform="translate(352.7568,33.998)"
           id="g216"><path
             id="path218"
             style="fill:#231f20;fill-opacity:1;fill-rule:nonzero;stroke:none"
             d="m 0,0 h 1.72 v -0.952 c 0,-1.334 0.709,-1.97 3,-1.97 h 5.693 c 2.657,0 3.441,0.566 3.441,2.509 0,1.707 -0.667,2.138 -2.954,2.138 H 7.415 c -5.602,0 -7.439,0.337 -7.439,3.932 0,3.089 1.837,3.785 5.623,3.785 H 9.55 c 4.55,0 5.695,-1.162 5.695,-3.58 V 5.396 H 13.518 C 13.48,7.55 13.257,7.943 8.445,7.943 H 6.496 C 2.957,7.943 1.701,7.758 1.701,5.525 1.701,3.913 2.208,3.374 5.07,3.374 h 5.437 c 3.574,0 5.076,-1.04 5.076,-3.337 v -0.881 c 0,-3.329 -2.733,-3.577 -5.451,-3.577 H 5.038 C 2.361,-4.421 0,-3.954 0,-0.992 Z" /></g></g></g></g></svg>